# Blender v3.0.0 OBJ File: ''
# www.blender.org
o Cube_Cube.003
v 1.000000 -0.700000 -0.700000
v 1.000000 -1.000000 -0.700000
v 1.000000 -0.700000 -1.000000
v 1.000000 -1.000000 -1.000000
v 0.700000 -0.700000 -1.000000
v 0.700000 -1.000000 -1.000000
v -0.700000 -1.000000 -0.700000
v -0.700000 -1.000000 -1.000000
v -1.000000 -0.700000 -0.700000
v -1.000000 -1.000000 -0.700000
v -1.000000 -0.700000 -1.000000
v -1.000000 -1.000000 -1.000000
v -1.000000 -0.700000 0.700000
v -1.000000 -1.000000 0.700000
v -0.700000 -0.700000 1.000000
v -0.700000 -1.000000 1.000000
v -1.000000 -0.700000 1.000000
v -1.000000 -1.000000 1.000000
v 0.700000 -0.700000 0.700000
v 0.700000 -1.000000 0.700000
v 0.700000 -0.700000 1.000000
v 0.700000 -1.000000 1.000000
v 1.000000 -0.700000 0.700000
v 1.000000 -1.000000 0.700000
v 1.000000 -0.700000 1.000000
v 1.000000 -1.000000 1.000000
v 1.000000 0.700000 -0.700000
v 1.000000 0.700000 -1.000000
v -0.700000 0.700000 -0.700000
v -1.000000 0.700000 -0.700000
v -1.000000 0.700000 -1.000000
v -0.700000 0.700000 1.000000
v -1.000000 0.700000 1.000000
v 0.700000 0.700000 1.000000
v 0.700000 0.700000 0.700000
v 1.000000 0.700000 1.000000
v 1.000000 0.700000 0.700000
v 0.700000 1.000000 -1.000000
v 1.000000 1.000000 -0.700000
v -0.700000 1.000000 -0.700000
v -0.700000 1.000000 -1.000000
v -1.000000 1.000000 -0.700000
v -1.000000 1.000000 -1.000000
v -0.700000 1.000000 0.700000
v -1.000000 1.000000 0.700000
v -0.700000 1.000000 1.000000
v -1.000000 1.000000 1.000000
v 0.700000 1.000000 1.000000
v 0.700000 1.000000 0.700000
v 1.000000 1.000000 1.000000
v 1.000000 1.000000 0.700000
v 0.700000 1.000000 -0.700000
v 1.000000 1.000000 -1.000000
v 0.700000 -1.000000 -0.700000
v -0.700000 -1.000000 0.700000
v -0.700000 -0.700000 -1.000000
v -0.700000 0.700000 -1.000000
v 0.700000 0.700000 -1.000000
v -0.700000 -0.700000 -0.700000
v 0.700000 -0.700000 -0.700000
v 0.700000 0.700000 -0.700000
v -1.000000 0.700000 0.700000
v -0.700000 -0.700000 0.700000
v -0.700000 0.700000 0.700000
v -0.300000 -0.300000 -0.300000
v -0.300000 0.300000 -0.300000
v 0.300000 -0.300000 -0.300000
v 0.300000 0.300000 -0.300000
v -0.300000 -0.300000 0.300000
v -0.300000 0.300000 0.300000
v 0.300000 -0.300000 0.300000
v 0.300000 0.300000 0.300000
v 1.800000 0.300000 -0.300000
v 1.800000 -0.300000 -0.300000
v 1.800000 -0.300000 0.300000
v 1.800000 0.300000 0.300000
v 0.300000 0.300000 1.800000
v 0.300000 -0.300000 1.800000
v -0.300000 -0.300000 1.800000
v -0.300000 0.300000 1.800000
v -0.300000 1.800000 -0.300000
v 0.300000 1.800000 -0.300000
v 0.300000 1.800000 0.300000
v -0.300000 1.800000 0.300000
vt 0.616071 0.669643
vt 0.669643 0.616071
vt 0.616071 0.616071
vt 0.714286 0.107143
vt 0.607143 0.000000
vt 0.714286 0.000000
vt 0.170643 0.973214
vt 0.117071 0.919643
vt 0.117071 0.973214
vt 0.420643 0.170643
vt 0.474214 0.117071
vt 0.420643 0.117071
vt 0.170643 0.919643
vt 0.117071 0.669643
vt 0.973214 0.669643
vt 0.919643 0.919643
vt 0.919643 0.669643
vt 0.669643 0.616071
vt 0.669643 0.669643
vt 0.607143 0.107143
vt 0.107143 0.000000
vt 0.107143 0.607143
vt 0.000000 0.107143
vt 0.107143 0.107143
vt 0.170643 0.170643
vt 0.616071 0.616071
vt 0.170643 0.669643
vt 0.117071 0.616071
vt 0.170643 0.117071
vt 0.117071 0.170643
vt 0.170643 0.420643
vt 0.420643 0.669643
vt 0.474214 0.616071
vt 0.420643 0.616071
vt 0.607143 0.107143
vt 0.607143 0.000000
vt 0.170643 0.616071
vt 0.107143 0.000000
vt 0.170643 0.170643
vt 0.117071 0.117071
vt 0.170643 0.117071
vt 0.919643 0.616071
vt 0.420643 0.170643
vt 0.474214 0.420643
vt 0.474214 0.170643
vt 0.474214 0.919643
vt 0.474214 0.669643
vt 0.607143 0.107143
vt 0.714286 0.000000
vt 0.607143 0.000000
vt 0.420643 0.170643
vt 0.474214 0.669643
vt 0.420643 0.919643
vt 0.420643 0.669643
vt 0.107143 0.000000
vt 0.919643 0.669643
vt 0.973214 0.616071
vt 0.919643 0.616071
vt 0.973214 0.919643
vt 0.973214 0.669643
vt 0.420643 0.117071
vt 0.474214 0.170643
vt 0.420643 0.919643
vt 0.474214 0.973214
vt 0.170643 0.973214
vt 0.420643 0.973214
vt 0.107143 0.000000
vt 0.669643 0.669643
vt 0.420643 0.973214
vt 0.117071 0.420643
vt 0.170643 0.474214
vt 0.607143 0.607143
vt 0.714286 0.714286
vt 0.714286 0.607143
vt 0.107143 0.607143
vt 0.000000 0.714286
vt 0.000000 0.607143
vt 0.919643 0.919643
vt 0.973214 0.973214
vt 0.669643 0.919643
vt 0.919643 0.669643
vt 0.973214 0.919643
vt 0.973214 0.669643
vt 0.420643 0.420643
vt 0.616071 0.919643
vt 0.616071 0.669643
vt 0.000000 0.107143
vt 0.107143 0.607143
vt 0.107143 0.107143
vt 0.107143 0.107143
vt 0.000000 0.607143
vt 0.000000 0.107143
vt 0.117071 0.420643
vt 0.117071 0.170643
vt 0.474214 0.420643
vt 0.474214 0.170643
vt 0.000000 0.107143
vt 0.474214 0.170643
vt 0.420643 0.420643
vt 0.420643 0.170643
vt 0.973214 0.669643
vt 0.919643 0.919643
vt 0.919643 0.669643
vt 0.117071 0.973214
vt 0.170643 0.919643
vt 0.170643 0.973214
vt 0.117071 0.669643
vt 0.170643 0.616071
vt 0.170643 0.669643
vt 0.420643 0.616071
vt 0.474214 0.669643
vt 0.420643 0.669643
vt 0.474214 0.919643
vt 0.420643 0.973214
vt 0.420643 0.919643
vt 0.107143 0.607143
vt 0.000000 0.714286
vt 0.474214 0.420643
vt 0.420643 0.474214
vt 0.000000 0.714286
vt 0.107143 0.714286
vt 0.714286 0.607143
vt 0.607143 0.714286
vt 0.607143 0.607143
vt 0.170643 0.420643
vt 0.117071 0.474214
vt 0.616071 0.919643
vt 0.669643 0.973214
vt 0.973214 0.919643
vt 0.919643 0.973214
vt 0.420643 0.420643
vt 0.474214 0.474214
vt 0.607143 0.607143
vt 0.714286 0.714286
vt 0.714286 0.607143
vt 0.000000 0.607143
vt 0.107143 0.714286
vt 0.714286 0.607143
vt 0.607143 0.714286
vt 0.669643 0.919643
vt 0.616071 0.973214
vt 0.000000 0.714286
vt 0.000000 0.107143
vt 0.669643 0.973214
vt 0.170643 0.474214
vt 0.170643 0.420643
vt 0.117071 0.919643
vt 0.420643 0.474214
vt 0.107143 0.107143
vt 0.000000 0.000000
vt 0.607143 0.107143
vt 0.714286 0.000000
vt 0.607143 0.000000
vt 0.669643 0.973214
vt 0.919643 0.919643
vt 0.669643 0.919643
vt 0.107143 0.000000
vt 0.474214 0.669643
vt 0.420643 0.919643
vt 0.474214 0.919643
vt 0.170643 0.474214
vt 0.170643 0.474214
vt 0.420643 0.420643
vt 0.170643 0.420643
vt 0.714286 0.714286
vt 0.669643 0.973214
vt 0.919643 0.973214
vt 0.919643 0.973214
vt 0.170643 0.973214
vt 0.420643 0.973214
vt 0.170643 0.919643
vt 0.170643 0.170643
vt 0.669643 0.669643
vt 0.001760 0.110066
vt 0.108903 0.002923
vt 0.001760 0.002923
vt 0.108903 0.002923
vt 0.376760 0.110066
vt 0.108903 0.110066
vt 0.108903 0.501923
vt 0.376760 0.609066
vt 0.108903 0.609066
vt 0.607903 0.609066
vt 0.500760 0.501923
vt 0.607903 0.501923
vt 0.108903 0.609066
vt 0.001760 0.501923
vt 0.001760 0.609066
vt 0.001760 0.377923
vt 0.001760 0.110066
vt 0.500760 0.609066
vt 0.607903 0.501923
vt 0.500760 0.501923
vt 0.108903 0.876923
vt 0.001760 0.876923
vt 0.001760 0.609066
vt 0.108903 0.110066
vt 0.376760 0.002923
vt 0.108903 0.110066
vt 0.001760 0.002923
vt 0.108903 0.002923
vt 0.607903 0.609066
vt 0.875760 0.501923
vt 0.607903 0.501923
vt 0.875760 0.609066
vt 0.376760 0.501923
vt 0.108903 0.501923
vt 0.001760 0.609066
vt 0.108903 0.501923
vt 0.108903 0.609066
vt 0.108903 0.377923
vt 0.500760 0.876923
vt 0.500760 0.609066
vt 0.500760 0.609066
vt 0.607903 0.876923
vt 0.000000 0.607143
vt 0.117071 0.117071
vt 0.607143 0.000000
vt 0.973214 0.616071
vt 0.714286 0.107143
vt 0.474214 0.919643
vt 0.474214 0.117071
vt 0.117071 0.474214
vt 0.000000 0.607143
vt 0.474214 0.420643
vt 0.973214 0.919643
vt 0.117071 0.616071
vt 0.474214 0.616071
vt 0.474214 0.973214
vt 0.107143 0.714286
vt 0.474214 0.474214
vt 0.714286 0.714286
vt 0.616071 0.973214
vt 0.973214 0.973214
vt 0.607143 0.714286
vt 0.000000 0.714286
vt 0.714286 0.714286
vt 0.107143 0.714286
vt 0.420643 0.474214
vt 0.714286 0.107143
vt 0.919643 0.973214
vt 0.420643 0.669643
vt 0.420643 0.474214
vt 0.607143 0.714286
vt 0.669643 0.919643
vt 0.170643 0.919643
vt 0.170643 0.669643
vt 0.376760 0.002923
vt 0.376760 0.501923
vt 0.108903 0.377923
vt 0.607903 0.609066
vt 0.001760 0.876923
vt 0.108903 0.876923
vt 0.376760 0.110066
vt 0.001760 0.110066
vt 0.875760 0.609066
vt 0.875760 0.501923
vt 0.376760 0.609066
vt 0.001760 0.501923
vt 0.001760 0.377923
vt 0.607903 0.876923
vt 0.500760 0.876923
vn 1.0000 0.0000 0.0000
vn 0.0000 0.0000 1.0000
vn 0.0000 -1.0000 0.0000
vn 0.0000 0.0000 -1.0000
vn -1.0000 0.0000 0.0000
vn 0.0000 1.0000 -0.0000
s off
f 3/1/1 2/2/1 4/3/1
f 1/4/2 54/5/2 2/6/2
f 2/7/3 6/8/3 4/9/3
f 5/10/4 4/11/4 6/12/4
f 54/13/3 8/14/3 6/8/3
f 17/15/5 62/16/5 13/17/5
f 10/18/5 13/17/5 9/19/5
f 60/20/2 7/21/2 54/5/2
f 60/22/6 56/23/6 59/24/6
f 6/12/4 56/25/4 5/10/4
f 9/19/5 12/26/5 10/18/5
f 7/27/3 12/28/3 8/14/3
f 8/29/4 11/30/4 56/25/4
f 11/30/4 57/31/4 56/25/4
f 55/32/3 18/33/3 14/34/3
f 7/21/1 63/35/1 55/36/1
f 7/27/3 14/34/3 10/37/3
f 9/38/6 63/35/6 59/24/6
f 15/39/2 18/40/2 16/41/2
f 14/42/5 17/15/5 13/17/5
f 19/43/4 37/44/4 23/45/4
f 55/32/3 22/46/3 16/47/3
f 19/48/4 24/49/4 20/50/4
f 16/41/2 21/51/2 15/39/2
f 15/52/6 19/53/6 63/54/6
f 55/55/4 19/48/4 20/50/4
f 23/56/1 26/57/1 24/58/1
f 23/56/1 36/59/1 25/60/1
f 22/61/2 25/62/2 21/51/2
f 20/63/3 26/64/3 22/46/3
f 1/65/6 19/53/6 23/66/6
f 19/48/5 54/67/5 20/50/5
f 23/56/1 2/2/1 1/68/1
f 54/13/3 24/69/3 20/63/3
f 31/70/4 41/71/4 57/31/4
f 35/72/4 51/73/4 37/74/4
f 29/75/2 42/76/2 30/77/2
f 37/78/1 50/79/1 36/59/1
f 56/23/1 29/75/1 59/24/1
f 3/1/1 27/80/1 1/68/1
f 63/81/1 32/82/1 15/83/1
f 25/62/2 34/84/2 21/51/2
f 9/19/5 31/85/5 11/86/5
f 13/87/4 64/88/4 63/89/4
f 60/90/5 58/91/5 5/92/5
f 15/39/2 33/93/2 17/94/2
f 5/10/4 28/95/4 3/96/4
f 59/24/2 30/77/2 9/97/2
f 1/98/2 61/99/2 60/100/2
f 21/101/5 35/102/5 19/103/5
f 53/104/6 52/105/6 39/106/6
f 41/107/6 42/108/6 40/109/6
f 45/110/6 46/111/6 44/112/6
f 48/113/6 51/114/6 49/115/6
f 61/116/5 38/117/5 58/91/5
f 36/118/2 48/119/2 34/84/2
f 64/88/4 45/120/4 44/121/4
f 27/122/2 52/123/2 61/124/2
f 32/125/2 47/126/2 33/93/2
f 28/127/1 39/128/1 27/80/1
f 33/129/5 45/130/5 62/16/5
f 58/131/4 53/132/4 28/95/4
f 64/133/1 46/134/1 32/135/1
f 57/136/1 40/137/1 29/75/1
f 34/138/5 49/139/5 35/72/5
f 30/140/5 43/141/5 31/85/5
f 28/142/3 61/116/3 58/91/3
f 61/116/3 57/143/3 58/91/3
f 30/140/5 45/130/5 42/144/5
f 61/99/2 40/145/2 29/146/2
f 38/147/6 40/109/6 52/105/6
f 58/131/4 41/71/4 38/148/4
f 29/149/3 31/150/3 57/143/3
f 64/151/3 33/152/3 62/153/3
f 40/154/1 64/155/1 29/156/1
f 29/149/3 62/153/3 30/157/3
f 42/108/6 44/112/6 40/109/6
f 32/158/3 35/159/3 34/160/3
f 32/125/2 48/119/2 46/161/2
f 46/111/6 49/115/6 44/112/6
f 44/162/4 35/163/4 64/164/4
f 35/72/3 36/165/3 34/138/3
f 39/106/6 49/115/6 51/114/6
f 52/166/5 35/102/5 49/167/5
f 51/168/1 27/80/1 39/128/1
f 35/159/3 27/169/3 37/170/3
f 20/63/3 7/27/3 54/13/3
f 60/171/6 63/54/6 19/53/6
f 57/31/4 5/10/4 56/25/4
f 61/99/2 59/172/2 60/100/2
f 29/156/1 63/81/1 59/173/1
f 62/16/5 9/19/5 13/17/5
f 66/174/4 67/175/4 65/176/4
f 71/177/2 76/178/2 72/179/2
f 70/180/6 77/181/6 72/182/6
f 70/183/5 65/184/5 69/185/5
f 71/186/3 65/187/3 67/188/3
f 72/179/2 84/189/2 70/190/2
f 73/191/1 75/192/1 74/193/1
f 67/188/3 75/194/3 71/186/3
f 72/182/6 73/195/6 68/196/6
f 68/197/4 74/198/4 67/175/4
f 77/199/2 79/200/2 78/201/2
f 72/202/1 78/203/1 71/204/1
f 69/185/5 80/205/5 70/183/5
f 71/186/3 79/206/3 69/207/3
f 82/208/6 84/209/6 83/210/6
f 66/174/4 82/211/4 68/197/4
f 70/183/5 81/212/5 66/213/5
f 68/214/1 83/215/1 72/202/1
f 3/1/1 1/68/1 2/2/1
f 1/4/2 60/20/2 54/5/2
f 2/7/3 54/13/3 6/8/3
f 5/10/4 3/96/4 4/11/4
f 54/13/3 7/27/3 8/14/3
f 17/15/5 33/129/5 62/16/5
f 10/18/5 14/42/5 13/17/5
f 60/20/2 59/24/2 7/21/2
f 60/22/6 5/216/6 56/23/6
f 6/12/4 8/29/4 56/25/4
f 9/19/5 11/86/5 12/26/5
f 7/27/3 10/37/3 12/28/3
f 8/29/4 12/217/4 11/30/4
f 11/30/4 31/70/4 57/31/4
f 55/32/3 16/47/3 18/33/3
f 7/21/1 59/24/1 63/35/1
f 7/27/3 55/32/3 14/34/3
f 9/38/6 13/218/6 63/35/6
f 15/39/2 17/94/2 18/40/2
f 14/42/5 18/219/5 17/15/5
f 19/43/4 35/163/4 37/44/4
f 55/32/3 20/63/3 22/46/3
f 19/48/4 23/220/4 24/49/4
f 16/41/2 22/61/2 21/51/2
f 15/52/6 21/221/6 19/53/6
f 55/55/4 63/89/4 19/48/4
f 23/56/1 25/60/1 26/57/1
f 23/56/1 37/78/1 36/59/1
f 22/61/2 26/222/2 25/62/2
f 20/63/3 24/69/3 26/64/3
f 1/65/6 60/171/6 19/53/6
f 19/48/5 60/90/5 54/67/5
f 23/56/1 24/58/1 2/2/1
f 54/13/3 2/7/3 24/69/3
f 31/70/4 43/223/4 41/71/4
f 35/72/4 49/139/4 51/73/4
f 29/75/2 40/137/2 42/76/2
f 37/78/1 51/168/1 50/79/1
f 56/23/1 57/136/1 29/75/1
f 3/1/1 28/127/1 27/80/1
f 63/81/1 64/155/1 32/82/1
f 25/62/2 36/118/2 34/84/2
f 9/19/5 30/140/5 31/85/5
f 13/87/4 62/224/4 64/88/4
f 60/90/5 61/116/5 58/91/5
f 15/39/2 32/125/2 33/93/2
f 5/10/4 58/131/4 28/95/4
f 59/24/2 29/75/2 30/77/2
f 1/98/2 27/225/2 61/99/2
f 21/101/5 34/226/5 35/102/5
f 53/104/6 38/147/6 52/105/6
f 41/107/6 43/227/6 42/108/6
f 45/110/6 47/228/6 46/111/6
f 48/113/6 50/229/6 51/114/6
f 61/116/5 52/230/5 38/117/5
f 36/118/2 50/231/2 48/119/2
f 64/88/4 62/224/4 45/120/4
f 27/122/2 39/232/2 52/123/2
f 32/125/2 46/161/2 47/126/2
f 28/127/1 53/233/1 39/128/1
f 33/129/5 47/234/5 45/130/5
f 58/131/4 38/148/4 53/132/4
f 64/133/1 44/235/1 46/134/1
f 57/136/1 41/236/1 40/137/1
f 34/138/5 48/237/5 49/139/5
f 30/140/5 42/144/5 43/141/5
f 28/142/3 27/238/3 61/116/3
f 61/116/3 29/149/3 57/143/3
f 30/140/5 62/16/5 45/130/5
f 61/99/2 52/239/2 40/145/2
f 38/147/6 41/107/6 40/109/6
f 58/131/4 57/31/4 41/71/4
f 29/149/3 30/157/3 31/150/3
f 64/151/3 32/240/3 33/152/3
f 40/154/1 44/241/1 64/155/1
f 29/149/3 64/151/3 62/153/3
f 42/108/6 45/110/6 44/112/6
f 32/158/3 64/242/3 35/159/3
f 32/125/2 34/84/2 48/119/2
f 46/111/6 48/113/6 49/115/6
f 44/162/4 49/243/4 35/163/4
f 35/72/3 37/244/3 36/165/3
f 39/106/6 52/105/6 49/115/6
f 52/166/5 61/245/5 35/102/5
f 51/168/1 37/78/1 27/80/1
f 35/159/3 61/246/3 27/169/3
f 20/63/3 55/32/3 7/27/3
f 60/171/6 59/247/6 63/54/6
f 57/31/4 58/131/4 5/10/4
f 61/99/2 29/146/2 59/172/2
f 29/156/1 64/155/1 63/81/1
f 62/16/5 30/140/5 9/19/5
f 66/174/4 68/197/4 67/175/4
f 71/177/2 75/248/2 76/178/2
f 70/180/6 80/249/6 77/181/6
f 70/183/5 66/213/5 65/184/5
f 71/186/3 69/207/3 65/187/3
f 72/179/2 83/250/2 84/189/2
f 73/191/1 76/251/1 75/192/1
f 67/188/3 74/252/3 75/194/3
f 72/182/6 76/253/6 73/195/6
f 68/197/4 73/254/4 74/198/4
f 77/199/2 80/255/2 79/200/2
f 72/202/1 77/256/1 78/203/1
f 69/185/5 79/257/5 80/205/5
f 71/186/3 78/258/3 79/206/3
f 82/208/6 81/259/6 84/209/6
f 66/174/4 81/260/4 82/211/4
f 70/183/5 84/261/5 81/212/5
f 68/214/1 82/262/1 83/215/1
